<svg id="Layer_1" data-name="Layer 1" xmlns="http://www.w3.org/2000/svg" viewBox="0 0 96.97 8.86"><defs><style>.cls-1{fill:none;stroke:#231f20;stroke-width:0.25px;}</style></defs><title>header</title><path class="cls-1" d="M5.14,2v6.6H3V2H0.3V0.36H7.83V2H5.14Z" transform="translate(-0.17 -0.07)"/><path class="cls-1" d="M16.11,8.64H13.76A8.25,8.25,0,0,1,13.38,7c-0.11-.91-0.47-1.44-1-1.48H11.2V8.64H9V0.36h3.29a10.85,10.85,0,0,1,1.3.06,2.18,2.18,0,0,1,2.24,2.19,2,2,0,0,1-1.67,2.06,2,2,0,0,1,1.3,1.94A4.39,4.39,0,0,0,16.11,8.64ZM12,3.94h0.58A0.94,0.94,0,0,0,13.61,3a0.89,0.89,0,0,0-1-.94H11.2V3.94H12Z" transform="translate(-0.17 -0.07)"/><path class="cls-1" d="M21.62,8.64H19.46V5.47L16.54,0.36H19L20.6,3.64l1.57-3.27h2.36L21.62,5.47V8.64Z" transform="translate(-0.17 -0.07)"/><path class="cls-1" d="M30.15,2v6.6H28V2H25.3V0.36h7.53V2H30.15Z" transform="translate(-0.17 -0.07)"/><path class="cls-1" d="M42.09,4.5a4,4,0,0,1-4.23,4.31A4,4,0,0,1,33.62,4.5,4,4,0,0,1,37.86.19,4,4,0,0,1,42.09,4.5Zm-2.21,0c0-1.76-.78-2.72-2-2.72s-2,1-2,2.72,0.78,2.72,2,2.72S39.89,6.25,39.89,4.5Z" transform="translate(-0.17 -0.07)"/><path class="cls-1" d="M50.65,6.14a2.5,2.5,0,0,1-2.37,2.45,9.58,9.58,0,0,1-1.22,0h-3.3V0.36h3.39a7.62,7.62,0,0,1,1.06,0,2.16,2.16,0,0,1,2.13,2.11,1.63,1.63,0,0,1-1.21,1.62A1.91,1.91,0,0,1,50.65,6.14ZM45.92,3.62h1a3.53,3.53,0,0,0,.53,0,0.69,0.69,0,0,0,.67-0.76,0.69,0.69,0,0,0-.66-0.76,3.73,3.73,0,0,0-.54,0h-1V3.62ZM48.4,6.07a0.85,0.85,0,0,0-.84-0.88H45.92V7h1.7A0.84,0.84,0,0,0,48.4,6.07Z" transform="translate(-0.17 -0.07)"/><path class="cls-1" d="M58.67,8.64H52.32V0.36h6.22V2H54.48V3.65h3.83V5.33H54.48V7h4.19V8.64Z" transform="translate(-0.17 -0.07)"/><path class="cls-1" d="M67.9,4.22V8.64H66.22L66,7.37l-0.36.91a2.72,2.72,0,0,1-1.91.53C61.54,8.81,60,7.34,60,4.56A4.05,4.05,0,0,1,64.2.19c2.36,0,3.57,1.26,3.74,2.89V3.2H65.8l0-.12a1.47,1.47,0,0,0-1.6-1.31c-1.05,0-1.93.86-1.93,2.65,0,2.09.9,2.79,1.92,2.79A1.65,1.65,0,0,0,65.86,5.9H64.25V4.22H67.9Z" transform="translate(-0.17 -0.07)"/><path class="cls-1" d="M77.91,4.5a4.23,4.23,0,1,1-8.47,0A4.23,4.23,0,1,1,77.91,4.5Zm-2.21,0c0-1.76-.78-2.72-2-2.72s-2,1-2,2.72,0.78,2.72,2,2.72S75.7,6.25,75.7,4.5Z" transform="translate(-0.17 -0.07)"/><path class="cls-1" d="M87.67,4.5a4.23,4.23,0,1,1-8.47,0A4.23,4.23,0,1,1,87.67,4.5Zm-2.21,0c0-1.76-.78-2.72-2-2.72s-2,1-2,2.72,0.78,2.72,2,2.72S85.46,6.25,85.46,4.5Z" transform="translate(-0.17 -0.07)"/><path class="cls-1" d="M97,4.39a3.87,3.87,0,0,1-3.5,4.2,7.63,7.63,0,0,1-1.06,0H89.33V0.36h3.13a7.63,7.63,0,0,1,1.06,0A3.67,3.67,0,0,1,97,4.39Zm-2.25,0c0-1.48-.74-2.27-1.82-2.36-0.28,0-.47,0-0.78,0H91.49V7h0.67c0.31,0,.5,0,0.78,0C94,6.84,94.76,5.9,94.76,4.43Z" transform="translate(-0.17 -0.07)"/></svg>